<mxfile modified="2023-03-15T21:55:25.429Z" host="Electron" agent="5.0 (Windows NT 10.0; Win64; x64) AppleWebKit/537.36 (KHTML, like Gecko) draw.io/20.3.0 Chrome/104.0.5112.114 Electron/20.1.3 Safari/537.36" etag="5f2Udskb5gniVeIiRDVZ" compressed="false" version="20.3.0" type="device">
  <diagram id="bj7qFdG0cl4MS5NZvkRM" name="Service Provider Info Management">
    <mxGraphModel dx="782" dy="517" grid="1" gridSize="10" guides="1" tooltips="1" connect="1" arrows="1" fold="1" page="1" pageScale="1" pageWidth="827" pageHeight="1169" math="0" shadow="0">
      <root>
        <mxCell id="o0NXzHKPSiq7cElLNmyO-0" />
        <mxCell id="o0NXzHKPSiq7cElLNmyO-1" parent="o0NXzHKPSiq7cElLNmyO-0" />
        <mxCell id="-udS8R_HlVq8eXPxXIdf-0" value="Information including System Hoster Name, &lt;br&gt;Contact channel information, etc.&lt;br&gt;&lt;br&gt;&lt;i&gt;Note: Can also provide an alternate System Title and Description.&lt;/i&gt;" style="shape=note;whiteSpace=wrap;html=1;size=14;verticalAlign=top;align=left;spacingTop=-6;strokeWidth=1;fillColor=none;fontSize=12;" parent="o0NXzHKPSiq7cElLNmyO-1" vertex="1">
          <mxGeometry x="490" y="310" width="190" height="100" as="geometry" />
        </mxCell>
        <mxCell id="-udS8R_HlVq8eXPxXIdf-1" value="Note that a service may be Sponsored and Developed by one Organisation, and the service reused and distributed by another organisation, with or without custom logical modules.&lt;br&gt;More or less same as Distributor, if talking about Products." style="shape=note;whiteSpace=wrap;html=1;size=14;verticalAlign=top;align=left;spacingTop=-6;strokeWidth=1;fillColor=none;fontSize=12;" parent="o0NXzHKPSiq7cElLNmyO-1" vertex="1">
          <mxGeometry x="490" y="160" width="190" height="140" as="geometry" />
        </mxCell>
        <UserObject label="" tooltip="ABOUT&#xa;&#xa;Reseller information is obviously not apparently needed for most enterprise systems -- but it is actually useful if a lead agency is the Sponsor, but the system is being delivered by multiple agencies. &#xa;You present the Reseller information in Dialogues (as oppossed to the Sponsor)." id="-udS8R_HlVq8eXPxXIdf-11">
          <mxCell style="shape=image;html=1;verticalAlign=top;verticalLabelPosition=bottom;labelBackgroundColor=#ffffff;imageAspect=0;aspect=fixed;image=https://cdn1.iconfinder.com/data/icons/hawcons/32/699014-icon-28-information-128.png;shadow=0;dashed=0;fontFamily=Helvetica;fontSize=12;fontColor=#000000;align=center;strokeColor=#000000;fillColor=#505050;dashPattern=1 1;" parent="o0NXzHKPSiq7cElLNmyO-1" vertex="1">
            <mxGeometry x="660" y="470" width="20" height="20" as="geometry" />
          </mxCell>
        </UserObject>
        <mxCell id="HrKBOudJgDZP1CLx_om2-23" style="edgeStyle=none;rounded=0;orthogonalLoop=1;jettySize=auto;html=1;entryX=0;entryY=1;entryDx=0;entryDy=0;endArrow=open;endFill=0;exitX=1;exitY=0.5;exitDx=0;exitDy=0;" parent="o0NXzHKPSiq7cElLNmyO-1" source="HrKBOudJgDZP1CLx_om2-5" target="HrKBOudJgDZP1CLx_om2-19" edge="1">
          <mxGeometry relative="1" as="geometry" />
        </mxCell>
        <mxCell id="HrKBOudJgDZP1CLx_om2-24" style="edgeStyle=none;rounded=0;orthogonalLoop=1;jettySize=auto;html=1;entryX=0;entryY=0.75;entryDx=0;entryDy=0;endArrow=open;endFill=0;exitX=1;exitY=0.5;exitDx=0;exitDy=0;" parent="o0NXzHKPSiq7cElLNmyO-1" source="HrKBOudJgDZP1CLx_om2-5" target="HrKBOudJgDZP1CLx_om2-14" edge="1">
          <mxGeometry relative="1" as="geometry" />
        </mxCell>
        <mxCell id="pVd3HVCTOvL4H1cQWsl4-1" value="is a" style="edgeStyle=none;rounded=0;orthogonalLoop=1;jettySize=auto;html=1;entryX=1;entryY=0.25;entryDx=0;entryDy=0;endArrow=block;endFill=0;exitX=0;exitY=0.5;exitDx=0;exitDy=0;" parent="o0NXzHKPSiq7cElLNmyO-1" source="HrKBOudJgDZP1CLx_om2-5" target="pVd3HVCTOvL4H1cQWsl4-0" edge="1">
          <mxGeometry relative="1" as="geometry" />
        </mxCell>
        <mxCell id="HrKBOudJgDZP1CLx_om2-5" value="&lt;p style=&quot;line-height: 100%&quot;&gt;&amp;lt;&amp;lt;actor&amp;gt;&amp;gt;&lt;br&gt;&lt;br&gt;&lt;b&gt;Deployment&lt;br&gt;Specialist&lt;/b&gt;&lt;/p&gt;" style="text;html=1;align=center;verticalAlign=middle;dashed=0;strokeColor=#000000;strokeWidth=2;" parent="o0NXzHKPSiq7cElLNmyO-1" vertex="1">
          <mxGeometry x="240" y="163" width="80" height="60" as="geometry" />
        </mxCell>
        <mxCell id="HrKBOudJgDZP1CLx_om2-25" style="edgeStyle=none;rounded=0;orthogonalLoop=1;jettySize=auto;html=1;entryX=0;entryY=0.75;entryDx=0;entryDy=0;endArrow=open;endFill=0;exitX=1.01;exitY=0.367;exitDx=0;exitDy=0;exitPerimeter=0;" parent="o0NXzHKPSiq7cElLNmyO-1" source="HrKBOudJgDZP1CLx_om2-7" target="HrKBOudJgDZP1CLx_om2-9" edge="1">
          <mxGeometry relative="1" as="geometry" />
        </mxCell>
        <mxCell id="HrKBOudJgDZP1CLx_om2-7" value="&lt;p style=&quot;line-height: 100%&quot;&gt;&amp;lt;&amp;lt;actor&amp;gt;&amp;gt;&lt;br&gt;&lt;br&gt;&lt;b&gt;Unauthenticated&lt;br&gt;User&lt;/b&gt;&lt;/p&gt;" style="text;html=1;align=center;verticalAlign=middle;dashed=0;strokeColor=#000000;strokeWidth=2;" parent="o0NXzHKPSiq7cElLNmyO-1" vertex="1">
          <mxGeometry x="120" y="340" width="80" height="60" as="geometry" />
        </mxCell>
        <mxCell id="HrKBOudJgDZP1CLx_om2-8" value="" style="fontStyle=1;align=center;verticalAlign=top;childLayout=stackLayout;horizontal=1;horizontalStack=0;resizeParent=1;resizeParentMax=0;resizeLast=0;marginBottom=0;strokeColor=#82b366;strokeWidth=2;fillColor=none;" parent="o0NXzHKPSiq7cElLNmyO-1" vertex="1">
          <mxGeometry x="360" y="340" width="120" height="63" as="geometry" />
        </mxCell>
        <mxCell id="HrKBOudJgDZP1CLx_om2-9" value="Retrieve/View &lt;br&gt;Svc Provider Info" style="html=1;align=left;spacingLeft=4;verticalAlign=middle;strokeColor=none;fillColor=none;fontStyle=1" parent="HrKBOudJgDZP1CLx_om2-8" vertex="1">
          <mxGeometry width="120" height="30" as="geometry" />
        </mxCell>
        <mxCell id="HrKBOudJgDZP1CLx_om2-10" value="" style="shape=ellipse;" parent="HrKBOudJgDZP1CLx_om2-9" vertex="1">
          <mxGeometry x="1" width="10" height="16" relative="1" as="geometry">
            <mxPoint x="-25" y="7" as="offset" />
          </mxGeometry>
        </mxCell>
        <mxCell id="HrKBOudJgDZP1CLx_om2-11" value="" style="line;strokeWidth=1;fillColor=none;align=left;verticalAlign=middle;spacingTop=-1;spacingLeft=3;spacingRight=3;rotatable=0;labelPosition=right;points=[];portConstraint=eastwest;" parent="HrKBOudJgDZP1CLx_om2-8" vertex="1">
          <mxGeometry y="30" width="120" height="8" as="geometry" />
        </mxCell>
        <mxCell id="HrKBOudJgDZP1CLx_om2-12" value="." style="html=1;align=center;spacingLeft=4;verticalAlign=top;strokeColor=none;fillColor=none;" parent="HrKBOudJgDZP1CLx_om2-8" vertex="1">
          <mxGeometry y="38" width="120" height="25" as="geometry" />
        </mxCell>
        <mxCell id="HrKBOudJgDZP1CLx_om2-13" value="" style="fontStyle=1;align=center;verticalAlign=top;childLayout=stackLayout;horizontal=1;horizontalStack=0;resizeParent=1;resizeParentMax=0;resizeLast=0;marginBottom=0;strokeColor=#82b366;strokeWidth=2;fillColor=none;" parent="o0NXzHKPSiq7cElLNmyO-1" vertex="1">
          <mxGeometry x="360" y="240" width="120" height="63" as="geometry" />
        </mxCell>
        <mxCell id="HrKBOudJgDZP1CLx_om2-14" value="Edit&lt;br&gt;Svc Provider Info" style="html=1;align=left;spacingLeft=4;verticalAlign=middle;strokeColor=none;fillColor=none;fontStyle=1" parent="HrKBOudJgDZP1CLx_om2-13" vertex="1">
          <mxGeometry width="120" height="30" as="geometry" />
        </mxCell>
        <mxCell id="HrKBOudJgDZP1CLx_om2-15" value="" style="shape=ellipse;" parent="HrKBOudJgDZP1CLx_om2-14" vertex="1">
          <mxGeometry x="1" width="10" height="16" relative="1" as="geometry">
            <mxPoint x="-25" y="7" as="offset" />
          </mxGeometry>
        </mxCell>
        <mxCell id="HrKBOudJgDZP1CLx_om2-16" value="" style="line;strokeWidth=1;fillColor=none;align=left;verticalAlign=middle;spacingTop=-1;spacingLeft=3;spacingRight=3;rotatable=0;labelPosition=right;points=[];portConstraint=eastwest;" parent="HrKBOudJgDZP1CLx_om2-13" vertex="1">
          <mxGeometry y="30" width="120" height="8" as="geometry" />
        </mxCell>
        <mxCell id="HrKBOudJgDZP1CLx_om2-17" value="." style="html=1;align=center;spacingLeft=4;verticalAlign=top;strokeColor=none;fillColor=none;" parent="HrKBOudJgDZP1CLx_om2-13" vertex="1">
          <mxGeometry y="38" width="120" height="25" as="geometry" />
        </mxCell>
        <mxCell id="HrKBOudJgDZP1CLx_om2-18" value="" style="fontStyle=1;align=center;verticalAlign=top;childLayout=stackLayout;horizontal=1;horizontalStack=0;resizeParent=1;resizeParentMax=0;resizeLast=0;marginBottom=0;strokeColor=#82b366;strokeWidth=2;fillColor=none;" parent="o0NXzHKPSiq7cElLNmyO-1" vertex="1">
          <mxGeometry x="360" y="160" width="120" height="63" as="geometry" />
        </mxCell>
        <mxCell id="HrKBOudJgDZP1CLx_om2-19" value="Create&lt;br&gt;Svc Provider Info" style="html=1;align=left;spacingLeft=4;verticalAlign=middle;strokeColor=none;fillColor=none;fontStyle=1" parent="HrKBOudJgDZP1CLx_om2-18" vertex="1">
          <mxGeometry width="120" height="30" as="geometry" />
        </mxCell>
        <mxCell id="HrKBOudJgDZP1CLx_om2-20" value="" style="shape=ellipse;" parent="HrKBOudJgDZP1CLx_om2-19" vertex="1">
          <mxGeometry x="1" width="10" height="16" relative="1" as="geometry">
            <mxPoint x="-25" y="7" as="offset" />
          </mxGeometry>
        </mxCell>
        <mxCell id="HrKBOudJgDZP1CLx_om2-21" value="" style="line;strokeWidth=1;fillColor=none;align=left;verticalAlign=middle;spacingTop=-1;spacingLeft=3;spacingRight=3;rotatable=0;labelPosition=right;points=[];portConstraint=eastwest;" parent="HrKBOudJgDZP1CLx_om2-18" vertex="1">
          <mxGeometry y="30" width="120" height="8" as="geometry" />
        </mxCell>
        <mxCell id="HrKBOudJgDZP1CLx_om2-22" value="." style="html=1;align=center;spacingLeft=4;verticalAlign=top;strokeColor=none;fillColor=none;" parent="HrKBOudJgDZP1CLx_om2-18" vertex="1">
          <mxGeometry y="38" width="120" height="25" as="geometry" />
        </mxCell>
        <mxCell id="HrKBOudJgDZP1CLx_om2-27" style="edgeStyle=none;rounded=0;orthogonalLoop=1;jettySize=auto;html=1;entryX=-0.001;entryY=0.479;entryDx=0;entryDy=0;entryPerimeter=0;endArrow=open;endFill=0;exitX=1;exitY=0.25;exitDx=0;exitDy=0;" parent="o0NXzHKPSiq7cElLNmyO-1" source="HrKBOudJgDZP1CLx_om2-26" target="HrKBOudJgDZP1CLx_om2-21" edge="1">
          <mxGeometry relative="1" as="geometry" />
        </mxCell>
        <mxCell id="HrKBOudJgDZP1CLx_om2-28" style="edgeStyle=none;rounded=0;orthogonalLoop=1;jettySize=auto;html=1;entryX=0;entryY=0;entryDx=0;entryDy=0;endArrow=open;endFill=0;" parent="o0NXzHKPSiq7cElLNmyO-1" source="HrKBOudJgDZP1CLx_om2-26" target="HrKBOudJgDZP1CLx_om2-17" edge="1">
          <mxGeometry relative="1" as="geometry" />
        </mxCell>
        <mxCell id="pVd3HVCTOvL4H1cQWsl4-2" value="is a" style="edgeStyle=none;rounded=0;orthogonalLoop=1;jettySize=auto;html=1;entryX=1;entryY=0.75;entryDx=0;entryDy=0;endArrow=block;endFill=0;exitX=-0.012;exitY=0.624;exitDx=0;exitDy=0;exitPerimeter=0;" parent="o0NXzHKPSiq7cElLNmyO-1" source="HrKBOudJgDZP1CLx_om2-26" target="pVd3HVCTOvL4H1cQWsl4-0" edge="1">
          <mxGeometry relative="1" as="geometry" />
        </mxCell>
        <mxCell id="HrKBOudJgDZP1CLx_om2-26" value="&lt;p style=&quot;line-height: 100%&quot;&gt;&amp;lt;&amp;lt;actor&amp;gt;&amp;gt;&lt;br&gt;&lt;br&gt;&lt;b&gt;Deployment&amp;nbsp;&lt;br&gt;Pipeline&lt;/b&gt;&lt;/p&gt;" style="text;html=1;align=center;verticalAlign=middle;dashed=0;strokeColor=#000000;strokeWidth=2;" parent="o0NXzHKPSiq7cElLNmyO-1" vertex="1">
          <mxGeometry x="240" y="250" width="80" height="60" as="geometry" />
        </mxCell>
        <mxCell id="pVd3HVCTOvL4H1cQWsl4-3" value="is a" style="edgeStyle=none;rounded=0;orthogonalLoop=1;jettySize=auto;html=1;entryX=0.5;entryY=0;entryDx=0;entryDy=0;endArrow=block;endFill=0;" parent="o0NXzHKPSiq7cElLNmyO-1" source="pVd3HVCTOvL4H1cQWsl4-0" target="HrKBOudJgDZP1CLx_om2-7" edge="1">
          <mxGeometry relative="1" as="geometry" />
        </mxCell>
        <mxCell id="pVd3HVCTOvL4H1cQWsl4-0" value="&lt;p style=&quot;line-height: 100%&quot;&gt;&amp;lt;&amp;lt;actor&amp;gt;&amp;gt;&lt;br&gt;&lt;br&gt;&lt;b&gt;Authenticated&lt;br&gt;User&lt;/b&gt;&lt;/p&gt;" style="text;html=1;align=center;verticalAlign=middle;dashed=0;strokeColor=#000000;strokeWidth=2;" parent="o0NXzHKPSiq7cElLNmyO-1" vertex="1">
          <mxGeometry x="120" y="210" width="80" height="60" as="geometry" />
        </mxCell>
        <mxCell id="0HD27Hv9nFFPSfaZqLQ3-0" value="Title" parent="o0NXzHKPSiq7cElLNmyO-0" visible="0" />
        <mxCell id="-udS8R_HlVq8eXPxXIdf-10" value="&lt;font style=&quot;font-size: 12px&quot;&gt;&lt;span style=&quot;font-size: 12px&quot;&gt;Diagram: Base System Logical Module - Functionality -&amp;nbsp;&lt;/span&gt;Service Provider Information&lt;/font&gt;" style="text;strokeColor=none;fillColor=none;html=1;fontSize=12;fontStyle=2;verticalAlign=middle;align=left;shadow=0;glass=0;comic=0;opacity=30;fontColor=#808080;" parent="0HD27Hv9nFFPSfaZqLQ3-0" vertex="1">
          <mxGeometry x="120" y="440" width="520" height="20" as="geometry" />
        </mxCell>
      </root>
    </mxGraphModel>
  </diagram>
</mxfile>
